<?xml version="1.0" encoding="iso-8859-1"?>
<!-- Generator: Adobe Illustrator 22.1.0, SVG Export Plug-In . SVG Version: 6.00 Build 0)  -->
<svg xmlns="http://www.w3.org/2000/svg" xmlns:xlink="http://www.w3.org/1999/xlink" version="1.1" id="Layer_1_1_" x="0px" y="0px" viewBox="0 0 64 64" style="enable-background:new 0 0 64 64;" xml:space="preserve" width="512" height="512">
<g>
	<path d="M20,41v-5c0-1.376,0.936-2.526,2.201-2.878c-0.095-1.039-0.166-2.082-0.189-3.122H20v4h-2v-4h-4v2h-2v-2H9.99   C9.89,35.074,9.026,40.083,7.418,44.906L6.627,47.28L8.334,46c0.859-0.645,1.925-1,2.999-1H13v-1c0-1.654,1.346-3,3-3H20z M14,38   h-2v-4h2V38z"/>
	<path d="M26,43h-7v6h8v-5C27,43.449,26.552,43,26,43z M25,47h-4v-2h4V47z"/>
	<path d="M22,41h2v-5c0-0.551-0.448-1-1-1s-1,0.449-1,1V41z"/>
	<path d="M13,47h-1.667c-0.645,0-1.283,0.213-1.8,0.6l-5.334,4C3.448,52.163,3,53.061,3,54c0,1.654,1.346,3,3,3h7.184   C13.072,56.686,13,56.352,13,56V47z"/>
	<path d="M17,43h-1c-0.552,0-1,0.449-1,1v12c0,0.551,0.448,1,1,1h1h9c0.552,0,1-0.449,1-1v-5H17V43z M23,53h2v2h-2V53z M19,53h2v2   h-2V53z"/>
	<polygon points="47,21.586 51.586,17 50,15.414 44.726,20.688 42.382,16 41,16 41,43 44.519,43 47,39.899  "/>
	<path d="M29,55h19c2.757,0,5-2.243,5-5s-2.243-5-5-5H29v2h19c1.654,0,3,1.346,3,3s-1.346,3-3,3H29V55z"/>
	<path d="M58.336,17.013l-0.537-0.36l0.107-0.638C57.97,15.646,58,15.313,58,15c0-3.878-3.739-6.948-7.743-5.73l-1.205,0.367   l-0.084-1.257C48.664,5.32,46.098,3,43,3c-2.963,0-5.512,2.212-5.931,5.145l-0.123,0.859l-0.98-0.005C32.691,9,30,11.691,30,15   c0,0.361,0.025,0.779,0.065,1.066l0.086,0.616l-0.515,0.349C27.985,18.152,27,20.009,27,22c0,3.309,2.691,6,6,6h6V14h4.618   l1.656,3.312L50,12.586L54.414,17L49,22.414V28h6c3.309,0,6-2.691,6-6C61,19.997,60.004,18.132,58.336,17.013z"/>
	<path d="M55.28,47.399l0.928-4.607l-4.527,0.911l-2.658-3.131L47.081,43H48c3.859,0,7,3.14,7,7s-3.141,7-7,7h-0.919L49,61   l2.681-4.703l4.527,0.911l-0.928-4.607L59.193,50L55.28,47.399z"/>
	<path d="M49,50c0-0.551-0.448-1-1-1H29v2h19C48.552,51,49,50.551,49,50z"/>
</g>
</svg>
